<?xml version="1.0" standalone="no"?><!DOCTYPE svg PUBLIC "-//W3C//DTD SVG 1.1//EN" "http://www.w3.org/Graphics/SVG/1.1/DTD/svg11.dtd"><svg t="1523427865398" class="icon" style="" viewBox="0 0 1024 1024" version="1.1" xmlns="http://www.w3.org/2000/svg" p-id="4394" xmlns:xlink="http://www.w3.org/1999/xlink" width="64" height="64"><defs><style type="text/css"></style></defs><path d="M597.333333 554.666667 424.533333 554.666667C401.066667 554.666667 381.866667 573.866667 381.866667 597.333333 381.866667 620.8 401.066667 640 424.533333 640L597.333333 640C620.8 640 640 620.8 640 597.333333 640 573.866667 620.8 554.666667 597.333333 554.666667M424.533333 426.666667 535.466667 426.666667C558.933333 426.666667 578.133333 407.466667 578.133333 384 578.133333 360.533333 558.933333 341.333333 535.466667 341.333333L424.533333 341.333333C401.066667 341.333333 381.866667 360.533333 381.866667 384 381.866667 407.466667 401.066667 426.666667 424.533333 426.666667M682.666667 384 682.666667 426.666667C682.666667 450.133333 701.866667 469.333333 725.333333 469.333333 748.8 469.333333 768 488.533333 768 512L768 640C768 710.826667 710.826667 768 640 768L384 768C313.173333 768 256 710.826667 256 640L256 341.333333C256 270.506667 313.173333 213.333333 384 213.333333L554.666667 213.333333C625.493333 213.333333 682.666667 270.506667 682.666667 341.333333M853.333333 85.333333 170.666667 85.333333C123.306667 85.333333 85.333333 123.306667 85.333333 170.666667L85.333333 853.333333C85.333333 900.266667 123.733333 938.666667 170.666667 938.666667L853.333333 938.666667C900.266667 938.666667 938.666667 900.266667 938.666667 853.333333L938.666667 170.666667C938.666667 123.306667 900.266667 85.333333 853.333333 85.333333Z" p-id="4395" fill="#2c2c2c"></path></svg>