<?xml version="1.0" ?>
<!DOCTYPE svg PUBLIC '-//W3C//DTD SVG 1.1//EN' 'http://www.w3.org/Graphics/SVG/1.1/DTD/svg11.dtd'>
<svg version="1.1" id="newssvg" xmlns="http://www.w3.org/2000/svg" xmlns:xlink="http://www.w3.org/1999/xlink" x="0px" y="0px" viewBox="0 0 60 60" style="enable-background:new 0 0 60 60;" xml:space="preserve">
<path class="menulisvgp" fill="#000000" d="M28.1,27.8c-0.7,0-1.3,0.2-1.7,0.7c-0.4,0.5-0.7,1.2-0.8,2.1h5.1c-0.1-1-0.3-1.7-0.8-2.2
	C29.5,28,28.9,27.8,28.1,27.8z M59.7,27.6c-0.1-0.6-0.4-1.2-0.9-1.5l-4.6-2.8l2.3-4.9c0.3-0.6,0.2-1.2-0.1-1.8
	c-0.3-0.6-0.8-0.9-1.4-1l-5.4-0.9l0.2-5.4c0-0.6-0.2-1.2-0.7-1.6c-0.5-0.4-1.1-0.5-1.7-0.4L42,8.4l-1.9-5.1c-0.2-0.6-0.7-1-1.3-1.2
	C38.2,1.9,37.5,2,37,2.4l-4.4,3.2l-3.7-4c-0.4-0.5-1-0.7-1.7-0.6c-0.6,0.1-1.2,0.4-1.5,0.9l-2.8,4.6L18,4.3C17.4,4,16.8,4,16.2,4.3
	c-0.5,0.3-0.9,0.8-1,1.4l-0.9,5.4l-5.4-0.2c-0.6,0-1.2,0.2-1.6,0.7c-0.4,0.5-0.5,1.1-0.4,1.7l1.3,5.3l-5.1,1.9
	c-0.6,0.2-1,0.7-1.2,1.3c-0.2,0.6-0.1,1.2,0.3,1.7L5.3,28l-4,3.7c-0.5,0.4-0.7,1-0.6,1.7c0.1,0.6,0.4,1.2,0.9,1.5l4.6,2.8L4,42.6
	c-0.3,0.6-0.2,1.2,0.1,1.8c0.3,0.6,0.8,0.9,1.4,1l5.4,0.9l-0.2,5.4c0,0.6,0.2,1.2,0.7,1.6c0.5,0.4,1.1,0.5,1.7,0.4l5.3-1.3l1.9,5.1
	c0.2,0.6,0.7,1,1.3,1.2c0.6,0.2,1.2,0.1,1.8-0.3l4.4-3.2l3.7,4c0.4,0.4,0.9,0.6,1.5,0.6c0.1,0,0.1,0,0.2,0c0.6-0.1,1.2-0.4,1.5-0.9
	l2.8-4.6l4.9,2.3c0.6,0.3,1.2,0.2,1.8-0.1c0.6-0.3,0.9-0.8,1-1.4l0.9-5.4l5.4,0.2h0.1c1.1,0,2-0.9,2-2c0-0.2,0-0.5-0.1-0.7l-1.2-5
	l5.1-1.9c0.6-0.2,1-0.7,1.2-1.3c0.2-0.6,0.1-1.2-0.3-1.8l-3.2-4.4l4-3.7C59.5,28.8,59.7,28.2,59.7,27.6z M20.5,35.5
	c0,0.6-0.1,1-0.4,1.3c-0.3,0.3-0.6,0.4-1,0.4c-0.4,0-0.8-0.1-1-0.4c-0.3-0.3-0.4-0.7-0.4-1.3v-4.7c0-0.9-0.1-1.6-0.4-2.1
	C17,28.2,16.5,28,15.7,28c-0.5,0-1,0.2-1.4,0.4c-0.4,0.3-0.7,0.7-0.9,1.2c-0.1,0.4-0.2,1.2-0.2,2.3v3.5c0,0.6-0.1,1-0.4,1.3
	c-0.3,0.3-0.6,0.4-1,0.4c-0.4,0-0.7-0.1-1-0.4c-0.3-0.3-0.4-0.7-0.4-1.3v-8.1c0-0.5,0.1-0.9,0.3-1.2c0.2-0.3,0.6-0.4,1-0.4
	c0.2,0,0.5,0.1,0.7,0.2c0.2,0.1,0.4,0.3,0.5,0.5c0.1,0.2,0.2,0.5,0.2,0.9v0.3c0.5-0.7,1-1.1,1.6-1.4c0.6-0.3,1.3-0.5,2-0.5
	c0.7,0,1.4,0.2,2,0.5c0.6,0.3,1,0.8,1.3,1.4c0.2,0.3,0.3,0.7,0.4,1.1c0.1,0.4,0.1,0.9,0.1,1.5V35.5z M26,33.9c0.2,0.5,0.6,0.9,1,1.1
	c0.4,0.2,0.9,0.4,1.4,0.4c0.3,0,0.6,0,0.9-0.1c0.3-0.1,0.5-0.2,0.8-0.4c0.3-0.2,0.5-0.3,0.7-0.5c0.2-0.2,0.5-0.5,0.9-0.8
	c0.1-0.1,0.3-0.2,0.6-0.2c0.3,0,0.5,0.1,0.7,0.2c0.2,0.2,0.3,0.4,0.3,0.7c0,0.3-0.1,0.6-0.3,0.9c-0.2,0.3-0.5,0.7-0.9,1
	c-0.4,0.3-0.9,0.6-1.5,0.8c-0.6,0.2-1.3,0.3-2.1,0.3c-1.8,0-3.2-0.5-4.2-1.5c-1-1-1.5-2.4-1.5-4.2c0-0.8,0.1-1.6,0.4-2.3
	c0.2-0.7,0.6-1.3,1.1-1.8c0.5-0.5,1.1-0.9,1.7-1.2c0.7-0.3,1.5-0.4,2.3-0.4c1.1,0,2,0.2,2.8,0.7c0.8,0.5,1.4,1.1,1.8,1.8
	c0.4,0.7,0.6,1.5,0.6,2.2c0,0.7-0.2,1.2-0.6,1.4c-0.4,0.2-1,0.3-1.7,0.3h-5.5C25.6,32.9,25.7,33.4,26,33.9z M50.3,28.3L48,35
	c-0.2,0.6-0.4,1-0.5,1.2c-0.1,0.3-0.3,0.5-0.5,0.7c-0.2,0.2-0.6,0.3-1,0.3c-0.4,0-0.8-0.1-1-0.3c-0.2-0.2-0.4-0.5-0.5-0.8
	c-0.1-0.3-0.2-0.7-0.4-1.2l-1.6-5.5L41,34.9c-0.2,0.8-0.4,1.3-0.7,1.7c-0.2,0.4-0.7,0.6-1.3,0.6c-0.3,0-0.6-0.1-0.8-0.2
	c-0.2-0.1-0.4-0.3-0.5-0.5c-0.1-0.2-0.3-0.5-0.4-0.8c-0.1-0.3-0.2-0.5-0.3-0.7l-2.3-6.7c-0.2-0.6-0.3-1.1-0.3-1.3
	c0-0.3,0.1-0.6,0.4-0.8c0.2-0.2,0.5-0.4,0.9-0.4c0.5,0,0.8,0.1,0.9,0.4c0.2,0.3,0.3,0.7,0.5,1.4l1.8,6.3l1.7-5.8
	c0.2-0.6,0.3-1,0.4-1.2c0.1-0.2,0.2-0.4,0.5-0.6c0.2-0.2,0.6-0.3,1-0.3c0.4,0,0.7,0.1,1,0.3c0.2,0.2,0.4,0.4,0.5,0.7
	c0.1,0.2,0.2,0.6,0.4,1.2l1.7,5.8l1.9-6.3c0.1-0.5,0.2-0.8,0.3-1c0.1-0.2,0.2-0.4,0.4-0.5c0.2-0.2,0.4-0.2,0.8-0.2
	c0.3,0,0.6,0.1,0.9,0.3c0.2,0.2,0.4,0.5,0.4,0.8C50.7,27.3,50.6,27.7,50.3,28.3z"></path>
</svg>