<?xml version="1.0" standalone="no"?><!DOCTYPE svg PUBLIC "-//W3C//DTD SVG 1.1//EN" "http://www.w3.org/Graphics/SVG/1.1/DTD/svg11.dtd">
<svg t="1523427582110" class="icon" style="" viewBox="0 0 1024 1024" version="1.1" xmlns="http://www.w3.org/2000/svg" p-id="3281" xmlns:xlink="http://www.w3.org/1999/xlink" width="32" height="32">
    <defs>
        <style type="text/css"></style>
    </defs>
    <path d="M863.393 129.477c0 17.259 13.868 31.25 30.975 31.25 17.105 0 30.975-13.991 30.975-31.25s-13.869-31.25-30.975-31.25c-17.108 0.001-30.975 13.991-30.975 31.25z m-403.232 409.42H176.855c-43.018 0-78.043 35.337-78.043 78.736v285.82c0 15.893 12.848 28.856 28.639 28.856h283.305c43.018 0 78.043-35.335 78.043-78.775V567.751c-0.036-15.892-12.846-28.854-28.638-28.854z m-33.387 310.642c0 11.178-9.011 20.268-20.089 20.268H160.726V621.702h0.037c0-11.18 9.013-20.307 20.053-20.307h245.958v248.144zM410.72 98.228H127.415c-15.792 0-28.639 12.924-28.639 28.856v285.78c0 43.439 35.025 78.815 78.043 78.815h283.303c15.794 0 28.603-12.963 28.603-28.934v-285.78c0.038-43.439-34.989-78.737-78.005-78.737z m16.057 330.95H180.779c-11.081 0-20.058-9.129-20.058-20.306V160.727h245.997c11.044 0.037 20.058 9.166 20.058 20.344v248.107h0.001zM847.05 538.897H563.747c-15.794 0-28.602 12.924-28.602 28.856v285.781c0 43.438 35.025 78.775 78.082 78.775h283.227c15.792 0 28.639-12.963 28.639-28.856v-285.82c0.041-43.399-34.986-78.736-78.043-78.736z m17.438 332.268h-248.41c-11.226 0-20.327-9.181-20.327-20.472V600.077h248.371c11.191 0 20.366 9.219 20.366 20.508v250.58z m60.855-624.813c0-1.266-0.084-2.512-0.227-3.741v-19.384h-0.02v19.222c-1.905-15.416-14.93-27.347-30.726-27.347-17.107 0-30.975 13.991-30.975 31.25 0 0.63 0.023 1.253 0.06 1.875h-0.289v160.7c-0.037 11.141-9.083 20.234-20.165 20.234H597.076V180.98c0-11.181 9.048-20.236 20.128-20.236h159.21v-0.026c16.936-0.202 30.605-14.107 30.605-31.241 0-17.259-13.869-31.25-30.975-31.25-0.269 0-0.535 0.014-0.802 0.02H613.245c-43.057 0-78.122 35.335-78.122 78.736v285.818c0 15.934 12.848 28.856 28.679 28.856h283.266c43.057 0.039 78.045-35.298 78.045-78.697V250.093c0.146-1.229 0.23-2.475 0.23-3.741z" fill="#2c2c2c" p-id="3282">
    </path>
</svg>