<?xml version="1.0" standalone="no"?><!DOCTYPE svg PUBLIC "-//W3C//DTD SVG 1.1//EN" "http://www.w3.org/Graphics/SVG/1.1/DTD/svg11.dtd"><svg t="1523430413716" class="icon" style="" viewBox="0 0 1024 1024" version="1.1" xmlns="http://www.w3.org/2000/svg" p-id="9840" xmlns:xlink="http://www.w3.org/1999/xlink" width="64" height="64"><defs><style type="text/css"></style></defs><path d="M512 0C228.072727 0 0 230.4 0 512c0 274.618182 218.763636 500.363636 491.054545 512H791.272727c23.272727 0 46.545455-23.272727 46.545455-46.545455v-69.818181c114.036364-93.090909 186.181818-235.054545 186.181818-395.636364C1024 230.4 795.927273 0 512 0zM244.363636 581.818182C211.781818 581.818182 186.181818 556.218182 186.181818 523.636364S211.781818 465.454545 244.363636 465.454545s58.181818 25.6 58.181819 58.181819-25.6 58.181818-58.181819 58.181818zM512 581.818182c-32.581818 0-58.181818-25.6-58.181818-58.181818S479.418182 465.454545 512 465.454545s58.181818 25.6 58.181818 58.181819S544.581818 581.818182 512 581.818182z m267.636364 0c-32.581818 0-58.181818-25.6-58.181819-58.181818s25.6-58.181818 58.181819-58.181819 58.181818 25.6 58.181818 58.181819-25.6 58.181818-58.181818 58.181818z" fill="#2c2c2c" p-id="9841"></path></svg>